<?xml version="1.0" standalone="no"?>
<!DOCTYPE svg PUBLIC "-//W3C//DTD SVG 20010904//EN"
 "http://www.w3.org/TR/2001/REC-SVG-20010904/DTD/svg10.dtd">
<svg version="1.0" xmlns="http://www.w3.org/2000/svg"
 width="928.000000pt" height="364.000000pt" viewBox="0 0 928.000000 364.000000"
 preserveAspectRatio="xMidYMid meet">

<g transform="translate(0.000000,364.000000) scale(0.100000,-0.100000)"
fill="#000000" stroke="none">
<path d="M3026 3384 c-148 -36 -234 -100 -389 -293 l-92 -114 -110 -38 c-60
-21 -110 -37 -111 -36 -1 1 -14 49 -29 107 -35 140 -60 181 -130 216 -48 23
-64 26 -115 21 -70 -6 -134 -40 -177 -92 l-29 -35 -39 20 c-26 13 -58 20 -95
20 -122 -1 -213 -65 -256 -178 -1 -1 -14 4 -30 13 -40 20 -137 19 -182 -2 -54
-26 -119 -95 -133 -141 -11 -37 -14 -40 -36 -31 -67 25 -146 3 -217 -62 -88
-81 -97 -121 -66 -298 6 -35 9 -65 7 -67 -4 -4 -122 -48 -271 -101 -136 -47
-190 -76 -251 -134 -145 -137 -152 -357 -16 -496 53 -55 105 -81 189 -93 85
-12 162 0 273 40 44 17 84 30 89 30 5 0 14 -18 20 -40 18 -65 67 -167 110
-227 l40 -56 0 -359 0 -358 630 0 630 0 0 365 c0 300 2 365 14 372 23 13 98
110 191 248 49 72 113 164 144 205 66 89 100 168 101 230 0 43 -13 116 -44
251 -8 32 -11 61 -8 63 4 2 31 9 61 16 66 15 173 8 291 -21 98 -23 219 -36
303 -31 52 4 57 6 57 27 0 18 12 29 53 50 131 69 209 149 276 287 71 144 77
208 22 216 -12 2 -113 -26 -224 -61 -111 -36 -212 -68 -225 -72 -16 -5 -24 -2
-28 12 -3 10 -19 51 -36 91 -29 68 -30 75 -18 118 7 25 20 48 29 51 9 3 39 13
66 23 28 10 120 43 205 73 179 64 187 72 119 130 -61 53 -212 125 -297 142
-90 18 -188 18 -266 -1z m243 -89 c77 -16 147 -42 139 -51 -3 -3 -35 0 -69 7
-35 6 -107 12 -159 12 -126 0 -194 -28 -275 -114 -30 -33 -61 -59 -68 -59 -14
0 -62 -49 -120 -122 -73 -92 -100 -110 -228 -154 -116 -40 -120 -41 -130 -22
-6 11 -9 21 -7 23 2 1 36 14 76 29 158 56 163 59 250 170 141 177 242 260 349
285 60 14 165 12 242 -4z m-1156 -139 c47 -19 60 -44 101 -206 20 -80 39 -153
42 -162 4 -13 -26 -1 -110 43 -99 52 -122 60 -159 57 l-42 -3 -18 75 c-21 85
-18 106 20 151 46 55 105 71 166 45z m-353 -91 c38 -19 49 -41 75 -145 l21
-85 -24 -48 c-18 -33 -26 -69 -30 -120 l-4 -73 -52 -24 c-43 -21 -52 -31 -60
-61 -7 -29 -5 -45 10 -75 27 -53 42 -54 46 -3 3 39 6 43 43 56 l40 14 44 -46
c43 -45 43 -46 25 -67 -43 -48 -119 -60 -171 -28 -44 26 -54 49 -108 250 -86
321 -86 321 -75 356 29 86 145 138 220 99z m-377 -149 c52 -22 65 -45 101
-187 19 -75 48 -178 65 -229 31 -96 34 -118 11 -76 -20 38 -61 51 -114 36 -24
-7 -59 -21 -76 -32 -29 -17 -32 -23 -27 -53 7 -41 37 -108 46 -100 3 3 4 21 2
40 -3 37 10 49 69 60 33 6 37 4 67 -39 18 -25 30 -52 27 -60 -8 -21 -72 -49
-114 -50 -25 0 -51 8 -77 26 -37 24 -41 33 -65 119 -14 52 -47 166 -73 254
-52 179 -52 206 3 258 46 44 101 56 155 33z m1600 -68 c13 -29 39 -95 57 -145
26 -75 30 -96 20 -108 -14 -17 -151 -71 -218 -85 -29 -7 -58 -7 -72 -2 -22 8
-20 9 19 16 88 14 241 76 241 98 0 6 -20 64 -45 129 -25 65 -45 125 -45 134 0
30 19 14 43 -37z m-88 -36 c0 -7 -25 -22 -55 -33 -84 -31 -95 -32 -109 -15
-12 14 -8 18 30 35 68 29 72 30 104 28 17 -1 30 -8 30 -15z m-910 -58 c-43
-80 -19 -120 105 -178 61 -29 86 -36 110 -31 31 7 72 52 85 93 9 29 17 28 105
-16 l75 -37 32 -125 c69 -264 105 -433 99 -465 -6 -31 -66 -126 -234 -369
-104 -150 -111 -159 -180 -230 -84 -87 -142 -111 -264 -110 -93 0 -100 1 -174
39 -61 32 -84 50 -111 89 -49 71 -66 142 -61 245 9 182 113 305 334 397 65 27
78 29 217 31 82 0 151 4 154 7 4 3 -15 25 -40 49 -39 36 -48 51 -57 96 -5 30
-10 56 -10 58 0 2 12 3 28 2 57 -4 80 2 106 28 32 32 23 41 -46 41 -149 2
-323 109 -356 220 -15 50 -15 107 -1 135 20 39 62 77 86 77 l22 0 -24 -46z
m1635 3 c-25 -22 -150 -75 -244 -101 -103 -30 -112 -31 -120 -11 -4 10 3 17
22 21 46 10 296 86 312 95 8 5 22 9 30 9 13 0 13 -2 0 -13z m-1472 -28 c76
-40 77 -42 52 -77 -22 -30 -22 -30 -65 -16 -23 8 -51 24 -63 34 -18 17 -19 24
-10 55 6 19 15 35 20 35 5 0 34 -14 66 -31z m780 -5 c2 -17 -9 -25 -69 -49
-70 -27 -73 -27 -86 -9 -12 16 -11 21 9 36 26 20 105 48 128 45 8 -1 16 -11
18 -23z m-1840 -1 c15 -13 32 -61 57 -156 20 -76 43 -157 51 -179 18 -51 18
-50 -11 -36 -46 21 -175 -33 -175 -74 0 -23 49 -118 61 -118 4 0 2 13 -4 30
-13 36 -3 50 55 74 l38 15 30 -37 c16 -20 30 -45 30 -54 0 -44 -74 -77 -144
-64 -54 10 -83 41 -105 109 -11 34 -39 116 -61 182 -67 193 -64 253 16 306 39
25 133 26 162 2z m1872 -77 c0 -16 -97 -56 -136 -56 -36 0 -21 18 40 46 58 27
96 31 96 10z m-281 -170 c-2 -2 -19 -11 -36 -20 -28 -14 -33 -14 -33 -2 0 8 8
17 18 19 22 6 57 8 51 3z m-1821 -187 c3 -24 -3 -27 -135 -69 -208 -65 -197
-58 -137 -81 75 -28 129 -79 150 -142 19 -56 24 -146 10 -189 -7 -23 -5 -28 9
-28 9 0 132 43 273 97 451 169 546 205 587 218 22 8 105 36 184 64 80 28 149
51 155 51 27 -2 -193 -95 -399 -169 -77 -28 -162 -60 -190 -70 -27 -11 -111
-43 -185 -71 -74 -28 -151 -57 -170 -65 -89 -36 -170 -65 -225 -80 -33 -9 -94
-33 -135 -52 -139 -65 -238 -56 -326 31 -54 55 -74 106 -74 188 1 90 56 176
141 222 27 15 131 57 231 92 100 36 189 69 197 74 23 14 36 7 39 -21z m682
-399 c0 -5 -12 -40 -27 -77 -25 -61 -28 -80 -28 -189 0 -119 0 -121 38 -196
41 -84 123 -175 185 -207 118 -60 270 -65 375 -12 l57 30 0 -233 c0 -128 3
-254 6 -280 l7 -46 -544 0 -544 0 0 285 c0 157 3 285 6 285 4 0 12 -6 18 -14
18 -21 101 -54 156 -61 60 -8 163 8 213 32 29 14 38 25 40 48 4 54 -8 61 -80
40 -34 -10 -94 -19 -133 -19 -133 0 -248 80 -318 224 -47 96 -70 170 -54 175
17 6 414 151 522 191 101 37 105 38 105 24z"/>
<path d="M2279 1713 c-13 -16 -12 -17 4 -4 9 7 17 15 17 17 0 8 -8 3 -21 -13z"/>
<path d="M2170 1588 c-47 -51 -116 -112 -160 -141 -72 -48 -76 -54 -67 -75 9
-20 16 -23 41 -18 83 17 174 84 227 168 18 29 41 59 51 66 21 16 25 77 5 85
-9 3 -47 -31 -97 -85z"/>
<path d="M431 2109 c-78 -31 -141 -121 -141 -203 0 -137 140 -241 274 -202 56
17 127 79 145 129 39 103 -32 248 -137 277 -45 12 -109 12 -141 -1z m130 -84
c61 -32 86 -112 54 -179 -43 -91 -172 -85 -228 11 -24 42 -10 96 35 140 50 47
87 54 139 28z"/>
<path d="M1546 1178 c-18 -30 -15 -250 4 -273 19 -22 57 -18 73 8 21 33 22
232 2 263 -20 31 -60 31 -79 2z"/>
<path d="M3145 2180 c-63 -5 -99 -16 -165 -47 -47 -22 -100 -52 -118 -67 -51
-44 -120 -148 -159 -239 l-35 -82 5 -330 c6 -366 10 -395 74 -525 62 -128 167
-212 320 -257 54 -15 246 -17 2558 -20 1545 -3 2543 -1 2611 5 98 9 122 15
195 49 46 22 99 52 117 67 48 41 120 146 156 229 l31 72 3 343 3 342 -25 68
c-72 186 -140 278 -249 330 -149 72 97 65 -2712 68 -1391 1 -2566 -2 -2610 -6z
m2720 -103 c51 -51 72 -149 38 -179 -10 -9 -37 -25 -59 -37 -51 -25 -253 -85
-261 -78 -3 3 -8 26 -10 51 -4 34 -2 47 8 50 8 2 35 10 61 16 l48 13 -6 52
c-8 64 13 110 59 130 53 23 85 19 122 -18z m1345 -58 c53 -32 80 -60 80 -84 0
-27 -68 -123 -93 -131 -19 -6 -72 23 -124 69 l-33 29 20 38 c29 57 69 100 93
100 12 0 38 -10 57 -21z m818 -131 l3 -125 -96 -29 c-52 -16 -95 -32 -95 -36
0 -4 13 -29 30 -56 53 -87 82 -178 87 -277 3 -63 0 -102 -10 -130 -13 -37 -18
-41 -68 -52 -82 -18 -250 -33 -374 -33 -99 0 -117 3 -160 24 -33 17 -53 22
-65 16 -9 -5 -54 -17 -101 -27 -142 -30 -643 -22 -760 13 -13 4 -15 13 -8 53
13 85 51 211 63 211 6 0 79 -7 161 -15 83 -8 191 -15 240 -15 l91 0 12 58 c21
100 89 198 159 228 42 18 117 18 151 0 69 -36 120 -126 124 -221 l3 -58 154 7
c85 3 156 8 159 10 8 8 -67 91 -123 135 l-55 44 0 117 0 118 228 85 c125 47
232 85 237 83 6 -1 11 -55 13 -128z m-4166 -100 c64 -44 75 -66 52 -109 -23
-46 -62 -96 -79 -103 -12 -4 -155 87 -155 100 0 13 42 84 65 113 34 39 58 39
117 -1z m1325 -68 c47 -21 83 -69 83 -113 0 -29 -28 -91 -63 -141 -16 -23 -17
-30 -6 -37 23 -14 131 -10 190 7 48 14 67 29 161 125 59 61 122 116 142 124
116 49 245 -33 275 -175 43 -199 -41 -370 -180 -370 -49 0 -145 41 -195 83
-18 15 -35 27 -38 27 -3 0 -26 -16 -51 -35 -112 -85 -315 -87 -410 -4 l-34 30
-64 -30 c-128 -61 -258 -77 -334 -40 -40 19 -103 91 -103 118 0 21 -23 22 -88
7 -37 -9 -96 -20 -132 -24 l-65 -7 -6 -110 c-8 -130 -12 -149 -51 -236 -30
-66 -30 -67 -87 -83 -165 -46 -341 -58 -459 -31 -186 43 -272 160 -259 355 8
120 82 348 110 337 7 -2 52 -16 101 -31 81 -25 87 -29 82 -49 -50 -171 -56
-232 -28 -286 24 -48 73 -71 149 -71 56 0 200 24 212 35 2 3 -3 93 -12 202 -9
108 -14 199 -12 203 2 4 69 10 147 13 142 6 251 21 364 51 32 8 60 12 62 8 14
-38 63 -110 85 -126 25 -18 43 -21 135 -21 128 1 147 6 132 35 -14 27 -68 60
-98 60 -28 0 -41 31 -44 108 l-3 56 63 23 c123 45 245 49 329 13z m-725 -639
c25 -16 49 -34 53 -40 4 -7 18 3 36 29 36 49 59 51 122 9 72 -48 72 -80 0
-160 -39 -44 -39 -44 -118 16 -26 20 -48 35 -49 33 -1 -2 -17 -22 -35 -45
l-32 -43 -32 16 c-18 9 -51 32 -75 51 l-42 35 22 40 c31 55 63 88 86 88 10 0
39 -13 64 -29z"/>
<path d="M5774 2002 c-21 -13 -27 -52 -10 -58 20 -8 76 14 76 30 0 28 -40 45
-66 28z"/>
<path d="M7133 1475 c-13 -9 -23 -22 -23 -29 0 -23 109 -34 170 -17 24 7 24 7
-11 28 -49 31 -108 38 -136 18z"/>
<path d="M5688 1448 c-46 -12 -48 -23 -7 -37 82 -29 186 -21 173 13 -12 32
-93 44 -166 24z"/>
</g>
</svg>
